<svg id="Capa_1" enable-background="new 0 0 512 512" height="512" viewBox="0 0 512 512" width="512" xmlns="http://www.w3.org/2000/svg" xmlns:xlink="http://www.w3.org/1999/xlink"><linearGradient id="SVGID_1_" gradientUnits="userSpaceOnUse" x1="74.98" x2="437.019" y1="437.019" y2="74.98"><stop offset="0" stop-color="#8d00db"/><stop offset="1" stop-color="#ff91bb"/></linearGradient><radialGradient id="SVGID_2_" cx="256" cy="255.999" gradientUnits="userSpaceOnUse" r="256"><stop offset="0" stop-color="#8d00db"/><stop offset=".6484" stop-color="#d839f3" stop-opacity=".352"/><stop offset="1" stop-color="#fc54ff" stop-opacity="0"/></radialGradient><linearGradient id="lg1"><stop offset="0" stop-color="#fda0ff"/><stop offset=".0066" stop-color="#fda1ff"/><stop offset=".4632" stop-color="#fed4ff"/><stop offset=".8084" stop-color="#fff3ff"/><stop offset="1" stop-color="#fff"/></linearGradient><linearGradient id="SVGID_3_" gradientUnits="userSpaceOnUse" x1="37.321" x2="397.325" xlink:href="#lg1" y1="406.683" y2="46.678"/><linearGradient id="SVGID_4_" gradientUnits="userSpaceOnUse" x1="186.302" x2="422.992" xlink:href="#lg1" y1="288.496" y2="51.807"/><linearGradient id="SVGID_5_" gradientUnits="userSpaceOnUse" x1="146.562" x2="467.788" xlink:href="#lg1" y1="281.145" y2="-40.08"/><linearGradient id="lg2"><stop offset="0" stop-color="#fff"/><stop offset=".1916" stop-color="#fff3ff"/><stop offset=".5368" stop-color="#fed4ff"/><stop offset=".9934" stop-color="#fda1ff"/><stop offset="1" stop-color="#fda0ff"/></linearGradient><linearGradient id="SVGID_6_" gradientUnits="userSpaceOnUse" x1="148.539" x2="358.246" xlink:href="#lg2" y1="516.833" y2="307.127"/><linearGradient id="SVGID_7_" gradientUnits="userSpaceOnUse" x1="98.486" x2="287.997" xlink:href="#lg2" y1="490.344" y2="300.833"/><linearGradient id="SVGID_8_" gradientUnits="userSpaceOnUse" x1="191.353" x2="442.451" xlink:href="#lg2" y1="519.159" y2="268.06"/><linearGradient id="SVGID_9_" gradientUnits="userSpaceOnUse" x1="295.88" x2="423.484" xlink:href="#lg2" y1="427.383" y2="299.778"/><linearGradient id="SVGID_10_" gradientUnits="userSpaceOnUse" x1="87.558" x2="221.259" xlink:href="#lg2" y1="421.808" y2="288.107"/><linearGradient id="lg3"><stop offset="0" stop-color="#fff"/><stop offset=".1318" stop-color="#fff1ff"/><stop offset=".7186" stop-color="#fdb7ff"/><stop offset="1" stop-color="#fda0ff"/></linearGradient><linearGradient id="SVGID_11_" gradientUnits="userSpaceOnUse" x1="102.672" x2="312.589" xlink:href="#lg3" y1="471.203" y2="261.285"/><linearGradient id="SVGID_12_" gradientUnits="userSpaceOnUse" x1="59.494" x2="250.179" xlink:href="#lg3" y1="452.867" y2="262.182"/><linearGradient id="SVGID_13_" gradientUnits="userSpaceOnUse" x1="154.104" x2="404.421" xlink:href="#lg3" y1="480.989" y2="230.671"/><linearGradient id="SVGID_14_" gradientUnits="userSpaceOnUse" x1="279.812" x2="384.277" xlink:href="#lg3" y1="393.432" y2="288.967"/><linearGradient id="SVGID_15_" gradientUnits="userSpaceOnUse" x1="68.807" x2="195.941" xlink:href="#lg3" y1="400.241" y2="273.107"/><linearGradient id="lg4"><stop offset="0" stop-color="#fc54ff" stop-opacity="0"/><stop offset=".3174" stop-color="#fa52fe" stop-opacity=".222"/><stop offset=".4931" stop-color="#f24cfc" stop-opacity=".345"/><stop offset=".6343" stop-color="#e442f7" stop-opacity=".444"/><stop offset=".757" stop-color="#d033f1" stop-opacity=".53"/><stop offset=".8678" stop-color="#b720e9" stop-opacity=".607"/><stop offset=".9685" stop-color="#9809df" stop-opacity=".678"/><stop offset="1" stop-color="#8d00db" stop-opacity=".7"/></linearGradient><linearGradient id="SVGID_16_" gradientUnits="userSpaceOnUse" x1="256" x2="256" xlink:href="#lg4" y1="487.463" y2="295.27"/><linearGradient id="SVGID_17_" gradientUnits="userSpaceOnUse" x1="194.874" x2="194.874" xlink:href="#lg4" y1="456.19" y2="295.14"/><linearGradient id="SVGID_18_" gradientUnits="userSpaceOnUse" x1="317.126" x2="317.126" xlink:href="#lg4" y1="456.19" y2="295.14"/><linearGradient id="SVGID_19_" gradientUnits="userSpaceOnUse" x1="370.651" x2="370.651" xlink:href="#lg4" y1="393.96" y2="295.011"/><linearGradient id="SVGID_20_" gradientUnits="userSpaceOnUse" x1="141.35" x2="141.35" xlink:href="#lg4" y1="393.96" y2="295.011"/><linearGradient id="SVGID_21_" gradientUnits="userSpaceOnUse" x1="92.782" x2="670.297" xlink:href="#lg1" y1="455.91" y2="-121.605"/><linearGradient id="SVGID_22_" gradientUnits="userSpaceOnUse" x1="256" x2="256" y1="375.046" y2="220.032"><stop offset="0" stop-color="#fc54ff" stop-opacity="0"/><stop offset=".4404" stop-color="#fa53fe" stop-opacity=".44"/><stop offset=".599" stop-color="#f34dfc" stop-opacity=".599"/><stop offset=".7121" stop-color="#e844f8" stop-opacity=".712"/><stop offset=".8035" stop-color="#d738f3" stop-opacity=".804"/><stop offset=".8818" stop-color="#c127ec" stop-opacity=".882"/><stop offset=".95" stop-color="#a613e3" stop-opacity=".95"/><stop offset="1" stop-color="#8d00db"/></linearGradient><linearGradient id="SVGID_23_" gradientUnits="userSpaceOnUse" x1="69.024" x2="423.594" xlink:href="#lg1" y1="343.136" y2="-11.434"/><linearGradient id="SVGID_24_" gradientUnits="userSpaceOnUse" x1="161.201" x2="484.628" xlink:href="#lg1" y1="487.849" y2="164.422"/><linearGradient id="SVGID_25_" gradientUnits="userSpaceOnUse" x1="86.55" x2="506.99" xlink:href="#lg1" y1="451.711" y2="31.27"/><g><circle cx="256" cy="256" fill="url(#SVGID_1_)" r="256"/><circle cx="256" cy="256" fill="url(#SVGID_2_)" r="256"/><path d="m256 39.538c-90.975.257-169.735 74.035-183.472 161.908-4.033 26.697 17.478 50.276 45.106 50.284-.015-.178 139.897 30.542 139.893 30.586 45.608-10.252 91.242-20.585 136.839-30.586 27.628-.008 49.14-23.587 45.106-50.284-13.738-87.873-92.497-161.651-183.472-161.908z" fill="url(#SVGID_3_)"/><path d="m408.977 204.247c-5.027-33.17-21.196-64.146-46.03-88.683-28.873-28.477-66.128-44.896-105.447-45.266 34.624 50.189 70.24 100.883 105.682 150.874 10.241.068 20.482.145 30.723.231 9.372.073 16.467-8.026 15.072-17.156z" fill="url(#SVGID_4_)"/><path d="m257.5 70.298c27.362.421 53.43 12.741 74.934 34.653 3.136 3.188 6.155 6.58 9.079 10.161 19.849 24.393 32.754 55.405 36.769 88.767.107.731.163 1.462.169 2.182.059 8.249-6.646 15.163-15.269 15.111-81.695-.538-163.391-.461-245.086.231-9.372.072-16.468-8.026-15.073-17.156 5.026-33.17 21.198-64.146 46.03-88.683 14.603-14.413 31.395-25.751 49.492-33.464 18.101-7.726 37.51-11.815 57.455-11.813.504.001.996.001 1.5.011z" fill="url(#SVGID_5_)"/><path d="m240.669 340.516c.05 43.845.144 87.691.281 131.536.032 8.489 6.771 15.411 15.05 15.41 8.278 0 15.018-6.922 15.05-15.41.137-43.845.23-87.691.281-131.536-10.221.018-20.441.018-30.662 0z" fill="url(#SVGID_6_)"/><path d="m179.347 340.202c.193 33.46.514 66.92.96 100.38.117 8.452 6.977 15.459 15.309 15.605 8.333.148 15.032-6.643 14.968-15.122-.268-33.552-.46-67.103-.576-100.655-10.22-.051-20.441-.121-30.661-.208z" fill="url(#SVGID_7_)"/><path d="m301.992 340.412c-.116 33.551-.308 67.103-.576 100.654-.064 8.479 6.635 15.269 14.968 15.122 8.332-.147 15.192-7.154 15.309-15.605.447-33.46.767-66.92.96-100.38-10.22.086-20.441.156-30.661.209z" fill="url(#SVGID_8_)"/><path d="m348.045 330.702c-.083 13.595-.191 27.189-.324 40.784-.117 12.645 10.017 22.755 22.619 22.469s23.049-10.769 23.241-23.299c.064-4.186-3.317-7.511-7.541-7.432-4.225.079-7.691 3.545-7.746 7.745-.056 4.192-3.53 7.674-7.74 7.757-4.211.082-7.594-3.275-7.546-7.48.12-10.453.222-20.905.307-31.358-2.494-7.547-5-15.103-7.519-22.669-2.583 4.49-5.167 8.985-7.751 13.483z" fill="url(#SVGID_9_)"/><path d="m148.686 339.888c.085 10.453.187 20.905.307 31.358.048 4.204-3.336 7.563-7.546 7.48s-7.684-3.565-7.74-7.757c-.054-4.201-3.52-7.666-7.746-7.745-4.225-.079-7.603 3.246-7.541 7.432.191 12.53 10.639 23.012 23.241 23.299 12.602.286 22.737-9.823 22.619-22.469-.133-13.595-.241-27.189-.324-40.784-2.584-4.499-5.168-8.994-7.75-13.485-2.52 7.566-5.027 15.124-7.52 22.671z" fill="url(#SVGID_10_)"/><path d="m240.633 295.27c.007 15.082.02 30.164.037 45.246 4.755 2.179 9.954 3.336 15.331 3.335 5.378 0 10.576-1.156 15.331-3.335.017-15.082.03-30.164.037-45.246-10.247.007-20.491.007-30.736 0z" fill="url(#SVGID_11_)"/><path d="m179.163 295.14c.036 15.021.097 30.041.184 45.062 4.764 2.203 9.969 3.392 15.346 3.431 5.378.038 10.57-1.078 15.315-3.222-.052-15.061-.089-30.123-.11-45.185-10.245-.021-20.49-.05-30.735-.086z" fill="url(#SVGID_12_)"/><path d="m302.102 295.227c-.021 15.062-.058 30.123-.11 45.185 4.745 2.144 9.938 3.26 15.315 3.222 5.377-.039 10.581-1.228 15.346-3.431.087-15.021.148-30.041.184-45.062-10.245.035-20.49.064-30.735.086z" fill="url(#SVGID_13_)"/><path d="m348.205 295.081c-.034 11.874-.087 23.747-.16 35.621.982-.009 2.872.215 4.482 1.813 3.168 3.143 6.82 5.617 10.787 7.373.122-14.959.208-29.918.258-44.877-5.122.025-10.245.048-15.367.07z" fill="url(#SVGID_14_)"/><path d="m148.428 295.011c.05 14.959.136 29.918.258 44.877 3.967-1.757 7.619-4.232 10.788-7.375 1.609-1.596 3.499-1.82 4.481-1.811-.072-11.874-.125-23.747-.16-35.621-5.122-.022-10.245-.045-15.367-.07z" fill="url(#SVGID_15_)"/><path d="m240.633 295.27c.028 58.927.134 117.855.318 176.782.032 8.489 6.771 15.411 15.05 15.41 8.278 0 15.018-6.922 15.05-15.41.184-58.927.29-117.855.318-176.782-10.247.007-20.491.007-30.736 0z" fill="url(#SVGID_16_)"/><path d="m179.163 295.14c.116 48.481.497 96.961 1.145 145.442.117 8.452 6.977 15.459 15.309 15.605 8.333.148 15.032-6.643 14.968-15.122-.389-48.613-.617-97.226-.687-145.839-10.245-.021-20.49-.05-30.735-.086z" fill="url(#SVGID_17_)"/><path d="m332.837 295.14c-.116 48.481-.497 96.961-1.145 145.442-.118 8.452-6.976 15.459-15.309 15.605-8.333.148-15.031-6.643-14.968-15.122.389-48.613.617-97.226.687-145.839 10.245-.021 20.49-.05 30.735-.086z" fill="url(#SVGID_18_)"/><path d="m386.04 363.224c-4.225.079-7.691 3.545-7.746 7.745-.056 4.192-3.53 7.674-7.74 7.757-4.211.082-7.594-3.275-7.546-7.48.292-25.412.48-50.823.565-76.235-5.123.025-10.245.049-15.367.07-.073 25.468-.234 50.937-.484 76.405-.117 12.645 10.017 22.755 22.619 22.469s23.049-10.769 23.241-23.299c.062-4.187-3.318-7.512-7.542-7.432z" fill="url(#SVGID_19_)"/><path d="m125.96 363.224c4.226.079 7.691 3.545 7.746 7.745.056 4.192 3.531 7.674 7.74 7.757 4.211.082 7.594-3.275 7.546-7.48-.292-25.412-.48-50.823-.565-76.235 5.123.025 10.245.049 15.367.07.073 25.468.234 50.937.484 76.405.117 12.645-10.016 22.755-22.619 22.469-12.601-.286-23.049-10.769-23.241-23.299-.061-4.187 3.318-7.512 7.542-7.432z" fill="url(#SVGID_20_)"/><path d="m117.626 266.929c-.027 0 .074 37.116.165 45.491.057 8.37 6.99 15.249 15.462 15.351 5.554.064 11.09-1.978 15.302-6.15 8.427-8.342 22.188-8.272 30.699.239 4.257 4.255 9.82 6.409 15.373 6.441s11.098-2.058 15.326-6.282c8.454-8.444 22.214-8.421 30.699.08 8.486 8.504 22.214 8.505 30.699 0 8.484-8.501 22.243-8.523 30.699-.079 8.454 8.449 22.182 8.354 30.699-.159 8.513-8.511 22.271-8.581 30.699-.239 4.213 4.172 9.749 6.214 15.302 6.15 8.471-.102 15.405-6.982 15.462-15.351.09-8.374.192-45.49.165-45.491-92.252.063-184.502.063-276.751-.001z" fill="url(#SVGID_21_)"/><path d="m117.626 266.929c-.027 0 .074 37.116.165 45.491.057 8.37 6.99 15.249 15.462 15.351 5.554.064 11.09-1.978 15.302-6.15 8.427-8.342 22.188-8.272 30.699.239 4.257 4.255 9.82 6.409 15.373 6.441s11.098-2.058 15.326-6.282c8.454-8.444 22.214-8.421 30.699.08 8.486 8.504 22.214 8.505 30.699 0 8.484-8.501 22.243-8.523 30.699-.079 8.454 8.449 22.182 8.354 30.699-.159 8.513-8.511 22.271-8.581 30.699-.239 4.213 4.172 9.749 6.214 15.302 6.15 8.471-.102 15.405-6.982 15.462-15.351.09-8.374.192-45.49.165-45.491-92.252.063-184.502.063-276.751-.001z" fill="url(#SVGID_22_)"/><path d="m117.635 251.73c-8.49.025-15.388 6.811-15.384 15.152.004 8.342 6.909 15.138 15.398 15.175 20.496.077 40.993.136 61.489.179-.014-10.207-.017-20.413-.008-30.619-20.498.027-40.997.065-61.495.113z" fill="url(#SVGID_23_)"/><path d="m394.366 251.73c-10.25-.024-20.499-.046-30.748-.065.013 10.165.009 20.329-.011 30.494 10.248-.03 20.497-.064 30.745-.102 8.49-.037 15.393-6.833 15.398-15.175.002-8.341-6.895-15.126-15.384-15.152z" fill="url(#SVGID_24_)"/><path d="m378.999 266.904c.003-8.395-6.892-15.219-15.382-15.238-61.496-.114-122.991-.13-184.487-.049-8.49.014-15.382 6.867-15.38 15.303.004 8.436 6.898 15.295 15.388 15.316 61.489.128 122.979.102 184.468-.077 8.49-.028 15.39-6.86 15.393-15.255z" fill="url(#SVGID_25_)"/></g></svg>